<?xml version="1.0" encoding="UTF-8"?>
<svg id="Camada_1" data-name="Camada 1" xmlns="http://www.w3.org/2000/svg" viewBox="0 0 300 433">
  <defs>
    <style>
      .cls-1 {
        fill: #5aa0f2;
        stroke-width: 0px;
      }
    </style>
  </defs>
  <path class="cls-1" d="m232.96,217.05c-.27,29.2-12.74,51.75-35.97,67.82-27.42,18.96-57.19,20.52-86.27,4.85-27.98-15.09-43.06-39.52-44-72.45,1.87-.08,3.35-.21,4.84-.21,12.68-.02,25.37.12,38.04-.06,9.67-.15,15.52-8.12,12.4-16.45-1.83-4.87-6.09-7.77-11.88-7.8-12.68-.06-25.36-.02-38.04-.02h-4.99v-30.53h4.46c12.68-.01,25.36.11,38.04-.05,9.62-.12,15.52-8.11,12.43-16.44-1.82-4.88-6.11-7.83-11.85-7.86-12.82-.06-25.64-.02-38.46-.02h-4.77v-32.46h12.36c10.15,0,20.29.16,30.43-.06,9.5-.2,15.25-7.91,12.35-16.13-1.82-5.17-5.95-8.03-12.08-8.06-12.68-.07-25.36-.03-38.04-.03h-4.89c-.2-11.3,1.97-21.74,6.67-31.4C87.1,22.29,108.35,5.16,139.07.81c.81-.11,1.59-.49,2.39-.74h16.9c4.26.88,8.54,1.64,12.76,2.65,32.95,7.9,60.37,40.77,61.63,73.83.05,1.37.01,2.73.01,4.54h-23.07c-6.06,0-12.11-.06-18.17.02-7.55.1-12.72,4.81-12.91,11.63-.19,7.12,4.72,12.37,12.46,12.53,12.4.26,24.8.09,37.2.1h4.51v32.46h-4.39c-12.12,0-24.23-.03-36.35,0-8.03.03-13.37,4.85-13.43,12-.06,7.22,5.14,12.23,13.18,12.32,12.11.12,24.23.03,36.34.04h4.76v30.53h-4.6c-11.97,0-23.95-.03-35.92.01-8.39.02-13.75,4.76-13.76,12.07,0,7.36,5.25,12.15,13.71,12.21,11.83.1,23.67.03,35.5.03h5.14Z"/>
  <path class="cls-1" d="m295.03,254.7c-7.57,28.91-23.06,52.96-44.92,73.04-19.74,18.12-42.83,29.83-69.09,35.22-2.34.48-4.71.85-7.06,1.24-2.33.39-4.67.75-7.06,1.13v34.36h5.23c20.01.01,40.01-.07,60.02.04,10.22.06,17.57,7.16,17.56,16.56,0,8.43-6.58,15.67-15.04,16.52-.98.1-1.97.1-2.95.1-54.53.01-109.05.02-163.58,0-10.13-.01-17.63-6.65-18.01-15.74-.39-9.46,6.54-17.17,16.23-17.36,13.52-.27,27.05-.1,40.58-.12h26.07v-34.18c-6.05-1.16-12.02-2.04-17.85-3.47-50.63-12.45-84.92-43.98-105.14-91.27C2.76,253.79.15,235.6.16,217.11c0-11.41-.13-22.83.05-34.24.14-8.3,6.56-15.25,14.45-16.17,8.25-.96,16.11,4.4,18.12,12.53.5,2.02.49,4.18.52,6.28.21,13.24-.13,26.51.62,39.72,1.95,34.44,17.68,62,44.44,82.97,35.01,27.43,74.52,32.6,115.09,16.19,39.86-16.12,64.89-46.63,71.23-89.93,2.39-16.33,1.45-33.15,1.75-49.75.12-6.59,2.31-11.83,7.81-15.46,10.06-6.64,24.88-.06,25.13,11.89.51,24.6,2.01,49.32-4.34,73.56Z"/>
</svg>