<?xml version="1.0" encoding="UTF-8"?>
<svg id="Layer_2" data-name="Layer 2" xmlns="http://www.w3.org/2000/svg" viewBox="0 0 317.37 41.08">
  <defs>
    <style>
      .cls-1 {
        fill: #fff;
        stroke-width: 0px;
      }
    </style>
  </defs>
  <g id="Layer_1-2" data-name="Layer 1">
    <g>
      <g>
        <path class="cls-1" d="m16.29,11.73v4.41c6.32,0,11.41,4.57,11.41,10.27s-5.09,10.27-11.41,10.27-11.41-4.57-11.41-10.27V0H0v26.41c0,8.15,7.23,14.67,16.29,14.67s16.29-6.52,16.29-14.67-7.23-14.67-16.29-14.67Z"/>
        <path class="cls-1" d="m52.15,0v41.08h4.89V0h-4.89Z"/>
        <path class="cls-1" d="m104.31,11.73v14.67c0,5.7-5.08,10.27-11.4,10.27s-11.41-4.57-11.41-10.27v-14.67h-4.89v14.67c0,8.15,7.24,14.67,16.31,14.67s16.29-6.52,16.29-14.67v-14.67h-4.89Z"/>
        <path class="cls-1" d="m145.06,11.73c-9.06,0-16.29,6.51-16.29,14.67s7.23,14.67,16.29,14.67v-4.41c-6.32,0-11.41-4.57-11.41-10.27s5.09-10.27,11.41-10.27,11.41,4.57,11.41,10.27h4.88c0-8.16-7.23-14.67-16.29-14.67Z"/>
        <path class="cls-1" d="m194.74,11.73v4.41c6.32,0,11.4,4.57,11.4,10.27s-5.08,10.27-11.4,10.27-11.41-4.57-11.41-10.27V0h-4.89v26.41c0,8.15,7.24,14.67,16.31,14.67s16.29-6.52,16.29-14.67-7.23-14.67-16.29-14.67Z"/>
        <path class="cls-1" d="m255.05,26.41v14.67h4.89v-14.67c0-5.7,5.08-10.27,11.4-10.27v-4.41c-9.06,0-16.29,6.51-16.29,14.67Z"/>
        <path class="cls-1" d="m312.48,0v26.41c0,5.7-5.08,10.27-11.41,10.27s-11.4-4.57-11.4-10.27,5.08-10.27,11.4-10.27v-4.41c-9.06,0-16.29,6.51-16.29,14.67s7.23,14.67,16.29,14.67,16.31-6.52,16.31-14.67V0h-4.89Z"/>
      </g>
      <rect class="cls-1" x="145.99" y="22.66" width="13" height="3.74"/>
      <circle class="cls-1" cx="228.11" cy="4.25" r="4.14"/>
      <path class="cls-1" d="m241.77,40.99v-4.41c-6.32,0-11.4-4.57-11.4-10.27v-14.67s-4.89,0-4.89,0v14.67c0,8.16,7.23,14.67,16.29,14.67Z"/>
    </g>
  </g>
</svg>